<svg width="60" height="50" viewBox="0 0 60 50" fill="none" xmlns="http://www.w3.org/2000/svg">
<path d="M58.6399 6.10734C57.6973 6.5254 56.7282 6.87824 55.738 7.16469C56.9103 5.83889 57.8041 4.27888 58.3497 2.57179C58.4721 2.18914 58.3453 1.7703 58.0308 1.52005C57.7166 1.26959 57.2802 1.23959 56.9343 1.44456C54.8314 2.69179 52.5626 3.58811 50.1837 4.11224C47.7874 1.77069 44.5327 0.43811 41.1681 0.43811C34.0658 0.43811 28.2876 6.21611 28.2876 13.3182C28.2876 13.8775 28.323 14.4338 28.3931 14.9823C19.5799 14.2085 11.3864 9.87669 5.75994 2.97495C5.55942 2.72895 5.25052 2.59637 4.93426 2.62172C4.61781 2.6465 4.33349 2.82495 4.17362 3.09921C3.03246 5.05734 2.42917 7.29689 2.42917 9.57553C2.42917 12.6791 3.53723 15.6237 5.49458 17.9246C4.89942 17.7185 4.32188 17.4609 3.77065 17.1549C3.47471 16.9902 3.11355 16.9927 2.81955 17.1613C2.52536 17.3299 2.34091 17.6399 2.33317 17.9788C2.33181 18.0359 2.33181 18.093 2.33181 18.1509C2.33181 22.7835 4.8251 26.9542 8.63704 29.2275C8.30955 29.1948 7.98226 29.1473 7.6571 29.0852C7.32188 29.0211 6.97717 29.1386 6.7511 29.3943C6.52465 29.6498 6.44975 30.0059 6.55407 30.3311C7.96504 34.7362 11.5977 37.9764 15.9894 38.9643C12.347 41.2457 8.18162 42.4406 3.80897 42.4406C2.89659 42.4406 1.97897 42.387 1.08091 42.2808C0.634779 42.2277 0.208198 42.4912 0.0562624 42.9154C-0.095673 43.3399 0.0653592 43.8131 0.444908 44.0564C6.06226 47.6581 12.5576 49.5619 19.2282 49.5619C32.3419 49.5619 40.5454 43.378 45.118 38.1903C50.8199 31.7217 54.0901 23.1597 54.0901 14.6999C54.0901 14.3465 54.0847 13.9896 54.0739 13.6339C56.3235 11.939 58.2603 9.88772 59.8364 7.53011C60.0758 7.17205 60.0499 6.69882 59.7725 6.36921C59.4956 6.0394 59.0339 5.93276 58.6399 6.10734Z" fill="white"/>
</svg>
