<svg width="86" height="32" viewBox="0 0 86 32" fill="none" xmlns="http://www.w3.org/2000/svg">
<path d="M48.7808 1.15797C46.3178 1.72997 45.0948 3.02797 45.0828 5.08197C45.0688 7.47397 46.4088 8.57197 50.7048 9.69197C52.7928 10.236 53.5028 11.179 52.5148 12.095C51.3938 13.134 49.1998 12.46 48.9238 10.991C48.7868 10.258 48.7938 10.26 46.4928 10.388L44.4538 10.501L44.5518 11.143C44.7028 12.133 45.5198 13.661 46.2158 14.257C48.2788 16.022 53.9598 15.841 55.9048 13.947L56.4738 13.393L56.5828 14.037C56.9828 16.406 59.3888 18.632 62.1568 19.194L63.0458 19.375L62.5208 20.063C60.7878 22.333 60.7388 26.975 62.4228 29.386C64.9998 33.075 72.2518 32.968 74.6378 29.206L75.0818 28.506V31.845H86.3208V28.255H79.6088V17.796H75.0818L75.0728 19.396C75.0648 20.703 75.0298 20.94 74.8778 20.691C74.0178 19.28 72.3428 18.108 70.7008 17.769L69.8158 17.586L70.7138 16.911C73.5078 14.811 75.2478 10.98 74.8008 7.91297C73.6258 -0.147027 62.0158 -0.272026 57.5938 7.72697C57.3088 8.24197 57.0658 8.67997 57.0538 8.69997C57.0418 8.71997 56.6438 8.35997 56.1688 7.90097C55.1838 6.94697 54.3928 6.59797 51.7038 5.93197C49.2018 5.31197 48.6898 4.87697 49.5308 4.08597C50.3308 3.33397 52.0728 3.82097 52.4648 4.90697C52.6948 5.54297 52.6528 5.53697 55.3128 5.36097L56.8508 5.25897L56.7528 4.64597C56.2988 1.80597 52.7248 0.241974 48.7798 1.15897L48.7808 1.15797ZM0.936797 8.27297V15.297H5.4638V9.67697H5.9238C6.6498 9.67697 7.0888 10.211 8.4888 12.799L9.7978 15.218L12.3148 15.261C13.6988 15.285 14.8308 15.262 14.8308 15.211C14.8308 14.42 12.0098 9.85497 11.2268 9.37897L10.7978 9.11797L11.6638 8.66497C14.8748 6.98397 14.2668 2.16797 10.7478 1.41297C10.3038 1.31797 8.0548 1.24697 5.4558 1.24697H0.936797V8.27097V8.27297ZM69.4758 2.47197C76.5408 4.31597 75.8938 14.228 68.4718 17.847C60.9098 21.534 54.1708 15.481 57.7648 8.23097C59.8618 4.00097 65.2258 1.36297 69.4748 2.47297L69.4758 2.47197ZM8.5828 4.41497C10.1728 5.21897 9.1178 6.70297 6.8658 6.83097L5.4638 6.91097V4.21397L6.8298 4.21597C7.6118 4.21697 8.3608 4.30197 8.5828 4.41397V4.41497ZM66.9768 5.65697C65.7338 5.98697 64.4698 7.24297 64.4688 8.14897C64.4668 9.62897 65.6498 10.163 67.5118 9.52197C68.6508 9.12997 68.9408 9.12997 69.1518 9.52297C69.5088 10.191 68.3388 10.872 67.6558 10.393C67.3128 10.153 66.0478 10.91 66.0348 11.363C66.0148 12.045 67.7408 12.303 68.7978 11.776C72.1548 10.103 71.2018 6.51197 67.7198 7.71297C66.3278 8.19297 66.0288 8.21397 66.0288 7.82797C66.0288 7.22197 66.9758 6.78397 67.3888 7.19697C67.5578 7.36597 68.8378 6.51697 68.8378 6.23597C68.8378 5.81597 67.7038 5.46197 66.9758 5.65597L66.9768 5.65697ZM61.9378 9.02497C61.1928 9.56397 61.1578 9.42397 62.5238 11.363C63.3648 12.556 63.6878 13.145 63.6558 13.424C63.5998 13.901 63.0648 14.028 62.6888 13.653C62.4498 13.414 62.3878 13.433 61.8218 13.918C60.3928 15.142 62.5648 16.193 64.1788 15.059C65.9518 13.813 65.9548 13.04 64.1918 10.466C62.8248 8.46897 62.7618 8.42897 61.9368 9.02597L61.9378 9.02497ZM4.6378 17.643C2.0838 18.046 0.588797 19.539 0.568797 21.707C0.548797 23.919 1.9828 25.179 5.5348 26.068C7.7118 26.613 8.4288 27.029 8.4288 27.746C8.4288 29.765 4.8148 29.563 4.4328 27.523C4.2988 26.811 4.3158 26.815 2.0108 26.94L-0.0332031 27.051L0.0687969 27.691C0.534797 30.625 2.2408 31.846 6.0418 31.965C9.0558 32.059 10.0918 31.767 11.4078 30.451L12.3088 29.55L12.6398 29.997C14.5548 32.587 21.0238 32.761 23.1478 30.279C23.7688 29.554 24.4658 28.188 24.5368 27.559C24.5868 27.116 24.5728 27.108 22.6798 26.534L20.7728 25.955L20.5168 26.725C19.6448 29.35 16.3518 29.38 15.6288 26.77C15.3828 25.883 15.4128 23.764 15.6848 22.851C16.3408 20.644 19.1118 20.191 20.2358 22.108C20.7048 22.908 20.5788 22.893 22.7068 22.412C24.7328 21.954 24.6458 22.035 24.1838 21.04C22.3518 17.098 16.1928 16.173 12.9268 19.348L12.0158 20.234L11.6378 19.589C10.6958 17.981 7.7248 17.155 4.6398 17.643H4.6378ZM47.7658 17.647C46.0368 17.947 44.3288 19.035 43.3638 20.45C43.1058 20.829 43.0988 20.798 43.0908 19.317L43.0828 17.795H38.5558V22.634H34.0288V17.795H29.5018V31.844H34.0288V26.224H38.5558V31.844H43.0828V28.668L43.5718 29.405C45.6058 32.475 51.8968 33.014 54.7598 30.363C58.0728 27.296 57.4228 20.319 53.6448 18.391C52.1868 17.647 49.6278 17.323 47.7658 17.646V17.647ZM7.1758 20.525C7.4368 20.66 7.7428 21.026 7.9088 21.402L8.1938 22.048L11.2438 21.901L11.1438 22.697C11.0118 23.75 10.9528 23.79 10.0778 23.403C9.6658 23.221 8.5128 22.868 7.5138 22.617C5.1508 22.025 4.8568 21.898 4.7358 21.417C4.5118 20.527 6.0748 19.955 7.1768 20.525H7.1758ZM50.4428 21.077C52.7548 21.719 53.2228 27.025 51.0788 28.287C49.4778 29.229 47.4518 28.427 46.9768 26.662C46.0328 23.155 47.7818 20.338 50.4428 21.077V21.077ZM69.3158 21.073C72.0018 21.819 71.9468 27.855 69.2478 28.582C67.0778 29.166 65.6338 27.658 65.6448 24.82C65.6568 21.871 67.0538 20.445 69.3158 21.074V21.073Z" fill="white"/>
</svg>
