<svg width="20" height="20" viewBox="0 0 20 20" fill="none" xmlns="http://www.w3.org/2000/svg">
<path d="M10 0.000732422C7.28442 0.000732422 6.944 0.0179983 5.87751 0.0618876C4.81321 0.110501 4.08777 0.277039 3.4518 0.524334C2.79423 0.779781 2.23433 1.1232 1.67845 1.67911C1.12256 2.23502 0.782342 2.79186 0.526846 3.44938C0.279595 4.08542 0.109861 4.81382 0.0613118 5.87811C0.0125425 6.9446 0 7.28504 0 10.0006C0 12.7163 0.0125385 13.0566 0.0613118 14.1231C0.109925 15.1874 0.279595 15.9128 0.526846 16.5488C0.782342 17.2063 1.12256 17.7632 1.67845 18.3191C2.23433 18.875 2.79423 19.2181 3.4518 19.4737C4.08777 19.7209 4.81321 19.8907 5.87751 19.9393C6.944 19.9879 7.28442 19.9973 10 19.9973C12.7156 19.9973 13.056 19.9817 14.1225 19.9393C15.1868 19.8907 15.9153 19.7209 16.5513 19.4737C17.2088 19.2181 17.7657 18.875 18.3215 18.3191C18.8774 17.7632 19.2176 17.2063 19.4731 16.5488C19.7204 15.9128 19.8901 15.1874 19.9387 14.1231C19.9875 13.0566 20 12.7163 20 10.0006C20 7.28504 19.9875 6.9446 19.9387 5.87811C19.8901 4.81382 19.7204 4.08542 19.4731 3.44938C19.2176 2.79186 18.8774 2.23502 18.3215 1.67911C17.7657 1.1232 17.2088 0.779781 16.5513 0.524334C15.9153 0.277039 15.1868 0.110501 14.1225 0.0618876C13.056 0.0132749 12.7156 0.000732422 10 0.000732422V0.000732422ZM10 1.80158C12.6698 1.80158 12.9854 1.81725 14.0398 1.8596C15.0147 1.90351 15.5465 2.06879 15.8989 2.20569C16.3656 2.38712 16.6976 2.60321 17.0474 2.95307C17.3974 3.30292 17.6134 3.63489 17.7947 4.10157C17.9316 4.45393 18.0963 4.98584 18.1408 5.9606C18.1888 7.01501 18.199 7.33068 18.199 10.0004C18.199 12.6703 18.188 12.986 18.1408 14.0403C18.0963 15.0152 17.9316 15.544 17.7947 15.8963C17.6134 16.363 17.3974 16.6978 17.0474 17.0478C16.6976 17.3977 16.3656 17.6137 15.8989 17.7952C15.5465 17.9316 15.0147 18.0939 14.0398 18.1383C12.9855 18.1869 12.6701 18.1963 10 18.1963C7.32991 18.1963 7.01445 18.1806 5.96021 18.1383C4.98534 18.0944 4.45651 17.9321 4.10416 17.7952C3.63742 17.6137 3.30244 17.3977 2.95257 17.0478C2.60272 16.6978 2.38666 16.363 2.20526 15.8963C2.06836 15.544 1.90673 15.0152 1.86223 14.0403C1.81424 12.986 1.80405 12.6703 1.80405 10.0004C1.80405 7.33068 1.81502 7.01501 1.86223 5.9606C1.90676 4.98584 2.06836 4.45393 2.20526 4.10157C2.38666 3.63489 2.60272 3.30292 2.95257 2.95307C3.30244 2.60321 3.63742 2.38712 4.10416 2.20569C4.45651 2.06926 4.98534 1.90414 5.96021 1.8596C7.01461 1.81099 7.33015 1.80158 10 1.80158V1.80158ZM15.3384 3.46161C14.6758 3.46161 14.1378 3.99948 14.1378 4.66218C14.1378 5.32487 14.6758 5.86275 15.3384 5.86275C16.0011 5.86275 16.539 5.32487 16.539 4.66218C16.539 3.99948 16.0011 3.46161 15.3384 3.46161ZM10 4.86431C7.16426 4.86431 4.86679 7.16493 4.86679 10.0006C4.86679 12.8364 7.16426 15.1337 10 15.1337C12.8357 15.1337 15.1363 12.8364 15.1363 10.0006C15.1363 7.16493 12.8357 4.86431 10 4.86431V4.86431ZM10 6.6683C11.8408 6.6683 13.3323 8.15991 13.3323 10.0006C13.3323 11.8414 11.8408 13.3329 10 13.3329C8.15923 13.3329 6.6677 11.8414 6.6677 10.0006C6.6677 8.15991 8.15923 6.6683 10 6.6683V6.6683Z" fill="white"/>
</svg>
