<svg width="65" height="37" viewBox="0 0 65 37" fill="none" xmlns="http://www.w3.org/2000/svg">
<path d="M64.6553 33.4151C64.5766 33.2458 64.5032 33.1055 64.435 32.993C63.3073 30.9666 61.1522 28.4793 57.9711 25.5304L57.9039 25.4628L57.8702 25.4297L57.8362 25.3958H57.802C56.3583 24.0226 55.444 23.0994 55.0611 22.6267C54.3606 21.7262 54.2037 20.8148 54.5865 19.8913C54.857 19.1935 55.8731 17.72 57.6324 15.4686C58.5578 14.2754 59.2907 13.3192 59.832 12.5987C63.7354 7.42117 65.4278 4.11266 64.9086 2.67186L64.707 2.33517C64.5715 2.13247 64.2218 1.94703 63.6584 1.77792C63.0937 1.60915 62.3719 1.58125 61.4918 1.69371L51.7453 1.76089C51.5875 1.70507 51.362 1.71027 51.0683 1.77792C50.7749 1.84556 50.6281 1.8795 50.6281 1.8795L50.4585 1.96406L50.3239 2.06565C50.211 2.13282 50.0869 2.25097 49.9514 2.41985C49.8167 2.58813 49.7039 2.78563 49.6138 3.01068C48.5527 5.73439 47.3463 8.26675 45.9922 10.6076C45.1574 12.0035 44.3907 13.2132 43.6905 14.2375C42.9913 15.2614 42.4046 16.0158 41.9312 16.4994C41.4571 16.9834 41.0291 17.3712 40.6449 17.6641C40.2612 17.9572 39.9683 18.081 39.7654 18.0357C39.5622 17.9904 39.3707 17.9455 39.1895 17.9005C38.8738 17.6978 38.6199 17.4222 38.4285 17.0733C38.2362 16.7244 38.1068 16.2853 38.0391 15.7563C37.9718 15.227 37.9319 14.7717 37.9206 14.3889C37.91 14.0065 37.9149 13.4657 37.9377 12.7679C37.9612 12.0698 37.9718 11.5975 37.9718 11.3499C37.9718 10.4943 37.9885 9.56586 38.022 8.56418C38.0562 7.5625 38.0838 6.76883 38.1069 6.18414C38.1299 5.59886 38.1406 4.97964 38.1406 4.32683C38.1406 3.67402 38.1007 3.16206 38.022 2.79048C37.9443 2.41937 37.8249 2.05914 37.6676 1.70991C37.5094 1.36104 37.2777 1.09117 36.9738 0.89958C36.6693 0.708231 36.2907 0.556381 35.8401 0.443559C34.6442 0.173565 33.1214 0.0275107 31.271 0.00480428C27.0747 -0.0401355 24.3784 0.230212 23.1826 0.815494C22.7088 1.06278 22.28 1.40066 21.8967 1.82806C21.4905 2.32346 21.4338 2.59381 21.7271 2.63828C23.081 2.84062 24.0395 3.32467 24.6036 4.08995L24.8069 4.49547C24.965 4.78805 25.1229 5.30605 25.2809 6.04873C25.4387 6.79142 25.5405 7.61299 25.5853 8.51297C25.6979 10.1565 25.6979 11.5633 25.5853 12.7336C25.4723 13.9044 25.3656 14.8159 25.2638 15.4687C25.162 16.1215 25.0098 16.6505 24.8069 17.0556C24.6036 17.4607 24.4683 17.7084 24.4005 17.7982C24.3328 17.8881 24.2764 17.9448 24.2316 17.967C23.9384 18.0791 23.6334 18.1362 23.3177 18.1362C23.0016 18.1362 22.6182 17.9785 22.1671 17.6632C21.716 17.3479 21.248 16.9148 20.7628 16.3632C20.2776 15.8116 19.7305 15.0406 19.1211 14.0503C18.5122 13.0599 17.8804 11.8895 17.226 10.5389L16.6847 9.55948C16.3463 8.92938 15.884 8.01189 15.2974 6.80786C14.7104 5.60336 14.1915 4.43823 13.7405 3.31273C13.5602 2.84003 13.2894 2.48016 12.9284 2.23252L12.759 2.13093C12.6464 2.04105 12.4657 1.94561 12.2177 1.84391C11.9694 1.74232 11.7102 1.66947 11.4393 1.62465L2.16635 1.69182C1.21878 1.69182 0.575845 1.90599 0.237308 2.33375L0.101822 2.5361C0.0341382 2.6488 0 2.8288 0 3.07656C0 3.3242 0.0676837 3.62813 0.20317 3.98801C1.55684 7.16218 3.02894 10.2234 4.61944 13.1722C6.20995 16.1209 7.59208 18.4962 8.76498 20.296C9.93813 22.097 11.1339 23.7968 12.3523 25.3945C13.5708 26.9928 14.3773 28.0171 14.7719 28.4671C15.167 28.9179 15.4773 29.2549 15.7029 29.48L16.5491 30.2902C17.0906 30.8306 17.8857 31.4777 18.9349 32.2316C19.9842 32.986 21.146 33.7287 22.4207 34.4609C23.6957 35.1918 25.1789 35.7884 26.8713 36.2497C28.5634 36.7115 30.2103 36.8968 31.8123 36.8074H35.7043C36.4936 36.7394 37.0916 36.4918 37.4981 36.0644L37.6327 35.8951C37.7233 35.7608 37.8081 35.5521 37.8863 35.2712C37.9655 34.9898 38.0048 34.6799 38.0048 34.3427C37.9817 33.375 38.0556 32.5028 38.2244 31.7263C38.393 30.95 38.5853 30.3647 38.8003 29.9705C39.0152 29.5767 39.2578 29.2444 39.5277 28.975C39.7982 28.705 39.9909 28.5415 40.104 28.4852C40.2164 28.4285 40.3061 28.3901 40.3738 28.367C40.9152 28.187 41.5525 28.3613 42.2865 28.8908C43.0198 29.4198 43.7077 30.073 44.3511 30.8492C44.9942 31.6262 45.7668 32.4979 46.6691 33.4657C47.5719 34.4338 48.3614 35.1534 49.038 35.6268L49.7146 36.032C50.1665 36.3023 50.7531 36.55 51.4752 36.775C52.196 37 52.8276 37.0562 53.3699 36.9438L62.0333 36.809C62.8902 36.809 63.5569 36.6674 64.0299 36.3865C64.5038 36.1052 64.7853 35.7952 64.8761 35.458C64.9667 35.1205 64.9715 34.7376 64.8933 34.3095C64.813 33.8824 64.734 33.5838 64.6553 33.4151Z" fill="white"/>
</svg>
